<svg width="340" height="62" viewBox="0 0 340 62" fill="none" xmlns="http://www.w3.org/2000/svg">
<path d="M299.219 46.3598V39.0616H307.012V46.3598H299.219Z" fill="#4A86FF"/>
<path d="M263.095 30.889C263.095 28.5829 263.513 26.4543 264.35 24.503C265.211 22.5517 266.377 20.8792 267.847 19.4854C269.342 18.0663 271.103 16.9639 273.13 16.1784C275.158 15.3928 277.362 15 279.745 15C282.152 15 284.369 15.3928 286.397 16.1784C288.424 16.9639 290.172 18.0663 291.642 19.4854C293.137 20.8792 294.29 22.5517 295.101 24.503C295.938 26.4543 296.356 28.5829 296.356 30.889C296.356 33.2204 295.938 35.3617 295.101 37.313C294.29 39.2643 293.137 40.9495 291.642 42.3686C290.172 43.7877 288.424 44.89 286.397 45.6756C284.369 46.4612 282.152 46.854 279.745 46.854C277.362 46.854 275.158 46.4612 273.13 45.6756C271.103 44.89 269.342 43.7877 267.847 42.3686C266.377 40.9495 265.211 39.2643 264.35 37.313C263.513 35.3617 263.095 33.2204 263.095 30.889ZM271.002 30.889C271.002 32.2827 271.204 33.5625 271.61 34.7282C272.041 35.8685 272.636 36.8568 273.396 37.6931C274.157 38.5294 275.069 39.1882 276.133 39.6697C277.223 40.1259 278.427 40.3539 279.745 40.3539C281.062 40.3539 282.253 40.1259 283.318 39.6697C284.407 39.1882 285.332 38.5294 286.092 37.6931C286.853 36.8568 287.436 35.8685 287.841 34.7282C288.272 33.5625 288.487 32.2827 288.487 30.889C288.487 29.5459 288.272 28.3042 287.841 27.1638C287.436 26.0234 286.853 25.0351 286.092 24.1989C285.332 23.3626 284.407 22.7164 283.318 22.2603C282.253 21.7788 281.062 21.538 279.745 21.538C278.427 21.538 277.223 21.7788 276.133 22.2603C275.069 22.7164 274.157 23.3626 273.396 24.1989C272.636 25.0351 272.041 26.0234 271.61 27.1638C271.204 28.3042 271.002 29.5459 271.002 30.889Z" fill="#4A86FF"/>
<path d="M258.547 15.7983V46.0938H250.64V15.7983H258.547Z" fill="#4A86FF"/>
<path d="M224.841 15.7983H232.748V39.5557H247.23V46.0938H224.841V15.7983Z" fill="#4A86FF"/>
<path d="M188.185 30.889C188.185 28.5829 188.603 26.4543 189.44 24.503C190.301 22.5517 191.467 20.8792 192.937 19.4854C194.432 18.0663 196.193 16.9639 198.22 16.1784C200.248 15.3928 202.452 15 204.834 15C207.242 15 209.459 15.3928 211.486 16.1784C213.514 16.9639 215.262 18.0663 216.732 19.4854C218.227 20.8792 219.38 22.5517 220.191 24.503C221.027 26.4543 221.446 28.5829 221.446 30.889C221.446 33.2204 221.027 35.3617 220.191 37.313C219.38 39.2643 218.227 40.9495 216.732 42.3686C215.262 43.7877 213.514 44.89 211.486 45.6756C209.459 46.4612 207.242 46.854 204.834 46.854C202.452 46.854 200.248 46.4612 198.22 45.6756C196.193 44.89 194.432 43.7877 192.937 42.3686C191.467 40.9495 190.301 39.2643 189.44 37.313C188.603 35.3617 188.185 33.2204 188.185 30.889ZM196.092 30.889C196.092 32.2827 196.294 33.5625 196.7 34.7282C197.131 35.8685 197.726 36.8568 198.486 37.6931C199.247 38.5294 200.159 39.1882 201.223 39.6697C202.313 40.1259 203.517 40.3539 204.834 40.3539C206.152 40.3539 207.343 40.1259 208.407 39.6697C209.497 39.1882 210.422 38.5294 211.182 37.6931C211.943 36.8568 212.525 35.8685 212.931 34.7282C213.362 33.5625 213.577 32.2827 213.577 30.889C213.577 29.5459 213.362 28.3042 212.931 27.1638C212.525 26.0234 211.943 25.0351 211.182 24.1989C210.422 23.3626 209.497 22.7164 208.407 22.2603C207.343 21.7788 206.152 21.538 204.834 21.538C203.517 21.538 202.313 21.7788 201.223 22.2603C200.159 22.7164 199.247 23.3626 198.486 24.1989C197.726 25.0351 197.131 26.0234 196.7 27.1638C196.294 28.3042 196.092 29.5459 196.092 30.889Z" fill="#4A86FF"/>
<path d="M184.804 27.3539V33.892H169.865V46.0938H161.958V15.7983H185.526V22.3363H169.865V27.3539H184.804Z" fill="#4A86FF"/>
<path d="M148.524 22.3363V46.0938H140.618V22.3363H131.001V15.7983H158.141V22.3363H148.524Z" fill="#4A86FF"/>
<path d="M101.006 15.7983H117.997C119.315 15.7983 120.544 15.9757 121.684 16.3305C122.85 16.6852 123.851 17.2301 124.687 17.965C125.523 18.6745 126.182 19.5995 126.664 20.7398C127.145 21.8802 127.386 23.2233 127.386 24.7691C127.386 26.7964 127.044 28.4436 126.36 29.7107C125.675 30.9524 124.662 31.9534 123.319 32.7136L129.096 46.0938H120.848L116.134 34.9943L108.912 36.5908V46.0938H101.006V15.7983ZM119.517 24.9592C119.517 24.2496 119.277 23.6414 118.795 23.1346C118.339 22.6024 117.718 22.3363 116.933 22.3363H108.912V29.6726L116.134 28.3422C117.427 28.1142 118.314 27.696 118.795 27.0878C119.277 26.4796 119.517 25.7701 119.517 24.9592Z" fill="#4A86FF"/>
<path d="M63.1987 30.889C63.1987 28.5829 63.6168 26.4543 64.4531 24.503C65.3147 22.5517 66.4804 20.8792 67.9502 19.4854C69.4453 18.0663 71.2065 16.9639 73.2338 16.1784C75.2611 15.3928 77.4658 15 79.8479 15C82.2553 15 84.4727 15.3928 86.5 16.1784C88.5273 16.9639 90.2758 18.0663 91.7456 19.4854C93.2408 20.8792 94.3938 22.5517 95.2047 24.503C96.041 26.4543 96.4591 28.5829 96.4591 30.889C96.4591 33.2204 96.041 35.3617 95.2047 37.313C94.3938 39.2643 93.2408 40.9495 91.7456 42.3686C90.2758 43.7877 88.5273 44.89 86.5 45.6756C84.4727 46.4612 82.2553 46.854 79.8479 46.854C77.4658 46.854 75.2611 46.4612 73.2338 45.6756C71.2065 44.89 69.4453 43.7877 67.9502 42.3686C66.4804 40.9495 65.3147 39.2643 64.4531 37.313C63.6168 35.3617 63.1987 33.2204 63.1987 30.889ZM71.1052 30.889C71.1052 32.2827 71.3079 33.5625 71.7134 34.7282C72.1442 35.8685 72.7397 36.8568 73.4999 37.6931C74.2602 38.5294 75.1724 39.1882 76.2368 39.6697C77.3265 40.1259 78.5302 40.3539 79.8479 40.3539C81.1657 40.3539 82.3567 40.1259 83.421 39.6697C84.5107 39.1882 85.4357 38.5294 86.1959 37.6931C86.9561 36.8568 87.539 35.8685 87.9445 34.7282C88.3753 33.5625 88.5907 32.2827 88.5907 30.889C88.5907 29.5459 88.3753 28.3042 87.9445 27.1638C87.539 26.0234 86.9561 25.0351 86.1959 24.1989C85.4357 23.3626 84.5107 22.7164 83.421 22.2603C82.3567 21.7788 81.1657 21.538 79.8479 21.538C78.5302 21.538 77.3265 21.7788 76.2368 22.2603C75.1724 22.7164 74.2602 23.3626 73.4999 24.1989C72.7397 25.0351 72.1442 26.0234 71.7134 27.1638C71.3079 28.3042 71.1052 29.5459 71.1052 30.889Z" fill="#4A86FF"/>
<path d="M33 15.7983H49.9913C51.3091 15.7983 52.5381 15.9757 53.6785 16.3305C54.8442 16.6852 55.8452 17.2301 56.6814 17.965C57.5177 18.6745 58.1765 19.5995 58.658 20.7398C59.1395 21.8802 59.3803 23.2233 59.3803 24.7691C59.3803 26.2896 59.1902 27.5947 58.8101 28.6843C58.43 29.7487 57.8598 30.6609 57.0995 31.4212C56.3393 32.1561 55.389 32.7769 54.2487 33.2838C53.1336 33.7653 51.8412 34.1707 50.3714 34.5002L40.9065 36.5908V46.0938H33V15.7983ZM51.5118 24.9592C51.5118 24.2496 51.2711 23.6414 50.7896 23.1346C50.3334 22.6024 49.7126 22.3363 48.927 22.3363H40.9065V29.6726L48.1287 28.3422C49.4211 28.1142 50.3081 27.696 50.7896 27.0878C51.2711 26.4796 51.5118 25.7701 51.5118 24.9592Z" fill="#4A86FF"/>
</svg>
